<?xml version="1.0" encoding="utf-8"?>
<!-- Generator: Adobe Illustrator 15.1.0, SVG Export Plug-In . SVG Version: 6.00 Build 0)  -->
<!DOCTYPE svg PUBLIC "-//W3C//DTD SVG 1.1//EN" "http://www.w3.org/Graphics/SVG/1.1/DTD/svg11.dtd">
<svg version="1.1" id="Layer_1" xmlns="http://www.w3.org/2000/svg" xmlns:xlink="http://www.w3.org/1999/xlink" x="0px" y="0px"
	 width="250px" height="123.793px" viewBox="0 0 250 123.793" style="enable-background:new 0 0 250 123.793;" xml:space="preserve"
	>
<style type="text/css">
<![CDATA[
	.st0{fill:#E5E5E5;}
	.st1{fill:#262261;}
	.st2{fill:#5C8FA6;}
	.st3{fill:#DD5A26;}
]]>
</style>
<g>
	<path class="st1" d="M152.57,61.41h-7.993v-5.051h14.117v16.941h-12.885c-7.913,0-13.52-3.301-13.52-13.76
		c0-11.055,5.129-14.833,13.52-14.833h12.885v4.971h-12.885c-3.896,0-6.76,1.909-6.76,9.544c0,5.528,1.511,8.868,6.76,8.868h6.761
		V61.41z"/>
	<path class="st1" d="M163.503,56.677v-4.334h11.334c5.807,0,8.629,2.505,8.629,7.834v13.124h-14.833
		c-4.016,0-6.521-2.386-6.521-6.204c0-5.567,3.857-6.521,8.391-6.521h7.317c0-2.903-1.153-3.898-5.051-3.898H163.503z
		 M177.82,69.125V64.75h-6.521c-1.472,0-3.261,0.119-3.342,2.187c0,1.869,1.035,2.187,2.944,2.187H177.82z"/>
	<path class="st1" d="M188.397,73.301V52.343h21.196c5.606,0.159,8.708,1.869,8.708,7.675v13.283h-5.527V60.734
		c0-2.784-0.517-4.175-4.892-3.778c-0.318,0-0.637,0-0.994,0c-0.318,0-0.597,0-0.794,0.04v16.305h-5.688V56.996h-6.521v16.305
		H188.397z"/>
	<path class="st1" d="M240.649,73.301h-8.073c-8.788,0-10.577-5.767-10.577-10.499c0-5.329,2.504-10.459,10.577-10.459h8.073v4.334
		h-7.317c-3.261,0-4.971,0.478-5.169,3.977h12.486v4.415h-12.486c0.198,3.142,0.993,3.897,5.129,3.897h7.357V73.301z"/>
</g>
<g>
	<g>
		<path class="st0" d="M136.923,52.138c-0.058-0.228-0.141-0.571-0.518-0.997l0.001,0c-4.493-4.972-9.214-7.542-13.902-8.215
			c6.091-6.378,10.032-15.372,10.015-26.574v-2.138h-18.734v2.138c-0.021,6.958-2.46,11.66-6.046,14.81
			c-3.593,3.141-8.5,4.69-13.451,4.687c-4.95,0.003-9.856-1.546-13.451-4.687c-3.587-3.151-6.025-7.853-6.046-14.81v-2.138H56.059
			v2.138c-0.016,12.397,4.809,22.089,12.033,28.525c7.222,6.449,16.743,9.702,26.197,9.705c0.147,0,0.295-0.009,0.441-0.01
			c-1.397,0.989-2.783,1.96-4.158,2.876c-5.425,3.645-10.63,6.312-15.355,6.282c-3.071-0.015-6.07-1.005-9.375-3.807
			c-0.296-0.271-0.808-0.546-1.428-0.543c-0.474,0.005-0.764,0.133-0.958,0.225c-0.375,0.198-0.48,0.329-0.586,0.423
			c-0.179,0.184-0.237,0.274-0.307,0.371c-0.234,0.333-0.429,0.677-0.715,1.185c-0.964,1.728-2.634,4.972-4.094,7.842
			c-0.728,1.434-1.4,2.77-1.896,3.761c-0.248,0.495-0.452,0.905-0.598,1.199c-0.072,0.148-0.131,0.266-0.175,0.354
			c-0.022,0.045-0.039,0.082-0.057,0.117c-0.021,0.048-0.018,0.034-0.077,0.172l-0.686,1.719l1.604,0.925
			c8.029,4.632,14.962,6.512,21.073,6.51h0.018c5.1,0,9.568-1.319,13.507-3.24c5.918-2.891,10.711-7.091,15.152-10.421
			c2.218-1.668,4.339-3.119,6.404-4.124c2.071-1.008,4.054-1.569,6.113-1.571c2.704,0.007,5.693,0.952,9.385,3.705l0.045,0.035
			l0.049,0.034c0.438,0.299,0.945,0.367,1.192,0.359c0.957-0.056,1.201-0.393,1.392-0.51c0.321-0.286,0.359-0.388,0.446-0.498
			c0.239-0.36,0.379-0.648,0.62-1.122c0.791-1.582,2.162-4.617,3.364-7.449c0.601-1.414,1.154-2.769,1.569-3.868
			c0.207-0.55,0.379-1.035,0.512-1.456c0.065-0.212,0.123-0.409,0.171-0.61c0.044-0.213,0.096-0.394,0.101-0.779
			C136.983,52.533,136.978,52.375,136.923,52.138z M95.022,35.34c9.76-0.001,17.669-7.911,17.671-17.67
			C112.692,7.91,104.782,0.001,95.022,0c-9.761,0.001-17.668,7.91-17.669,17.67C77.354,27.43,85.262,35.339,95.022,35.34z"/>
	</g>
	<g>
		<g>
			<path class="st3" d="M134.826,52.579c-6.165-6.774-12.164-8.448-18.052-7.425c8.027-6.005,13.609-15.666,13.609-28.802h-14.46
				c0,14.944-10.863,21.634-21.633,21.634c-10.768,0-21.635-6.69-21.635-21.634H58.197c0,23.696,18.157,36.094,36.093,36.094
				c2.905,0,5.816-0.328,8.654-0.974c-12.976,8.55-25.608,21.125-38.521,10.049c-0.24-0.208-7.387,14.059-7.484,14.3
				c40.305,23.243,47.227-27.445,71.864-9.001C129.045,67.001,135.25,53.046,134.826,52.579z"/>
		</g>
		<g>
			<circle class="st3" cx="95.023" cy="17.67" r="15.533"/>
		</g>
	</g>
</g>
<g>
	<path class="st1" d="M127.305,113.354V96.78c0-17.83,6.329-19.538,17.781-19.538h11.552v6.278h-12.255
		c-5.978,0-8.991,1.959-9.393,8.84h21.647v6.178H134.99v14.816H127.305z"/>
	<path class="st3" d="M168.241,77.243v6.58h-7.231v-6.58H168.241z M168.241,86.886v26.468h-7.231V86.886H168.241z"/>
	<path class="st3" d="M171.708,92.16v-5.273h4.871v-9.644h6.982v9.644h7.483v5.273h-7.483v10.698c0,4.42,1.456,5.224,6.78,5.224
		h0.703v5.273h-6.379c-5.273,0-8.087-3.113-8.087-8.236V92.16H171.708z"/>
</g>
<g>
	<path class="st1" d="M106.612,113.251v-8.774H75.736v-9.309L104,65.096h12.859V96.24h6.497v8.237h-6.497v8.774H106.612z
		 M106.612,96.24V75.478L87.256,96.24H106.612z"/>
</g>
<g>
	<g>
		<path class="st0" d="M82.863,91.762c-0.058-0.227-0.137-0.573-0.518-1.007c-4.494-4.977-9.218-7.545-13.906-8.216
			c6.093-6.381,10.031-15.373,10.018-26.575v-2.14H59.721v2.14c-0.019,6.895-2.417,11.574-5.947,14.722
			c-3.54,3.14-8.377,4.717-13.283,4.768c-0.149,0.001-0.238,0.006-0.266,0.006s-0.117-0.005-0.265-0.006H0.888v18.738h39.358
			c0.139,0,0.278-0.001,0.415-0.003c-1.396,0.988-2.778,1.956-4.15,2.87c-5.427,3.646-10.629,6.313-15.356,6.284
			c-3.081-0.017-6.088-1.012-9.402-3.833l-0.013-0.01l-0.013-0.009c-0.301-0.25-0.751-0.494-1.373-0.497
			c-0.476,0.004-0.768,0.133-0.96,0.225c-0.375,0.196-0.481,0.329-0.586,0.422C8.63,99.822,8.57,99.914,8.5,100.01
			c-0.232,0.332-0.428,0.677-0.714,1.184c-0.964,1.728-2.636,4.972-4.096,7.843c-0.727,1.435-1.399,2.77-1.896,3.759
			c-0.247,0.495-0.452,0.907-0.598,1.2c-0.072,0.148-0.131,0.267-0.173,0.356c-0.023,0.046-0.042,0.081-0.058,0.115
			c-0.021,0.05-0.019,0.033-0.078,0.179l-0.681,1.716l1.601,0.921c8.028,4.634,14.962,6.512,21.074,6.51h0.017
			c5.099,0,9.568-1.319,13.506-3.24c5.917-2.89,10.71-7.09,15.155-10.42c2.216-1.669,4.336-3.119,6.402-4.125
			c2.07-1.007,4.053-1.569,6.112-1.571c2.704,0.009,5.692,0.954,9.384,3.706c0.523,0.383,1.016,0.428,1.286,0.428
			c0.958-0.056,1.203-0.395,1.393-0.511c0.321-0.285,0.359-0.389,0.445-0.499c0.24-0.358,0.38-0.646,0.621-1.119
			c0.792-1.584,2.163-4.618,3.364-7.45c0.601-1.416,1.153-2.77,1.569-3.868c0.208-0.552,0.381-1.036,0.512-1.457
			c0.066-0.212,0.123-0.407,0.17-0.609c0.045-0.212,0.096-0.394,0.102-0.779C82.917,92.151,82.914,91.996,82.863,91.762z
			 M12.927,56.448c2.331,0.266,4.451,0.25,6.323,0.236c1.666-0.013,2.972-0.002,4.062,0.131c-0.004,0.157-0.023,0.309-0.023,0.465
			c0.002,9.761,7.911,17.669,17.67,17.673c9.761-0.003,17.67-7.912,17.672-17.673c-0.002-9.759-7.912-17.667-17.672-17.671
			c-4.943,0.002-9.408,2.037-12.615,5.309c-0.497-0.383-1.024-0.764-1.594-1.14c-5.233-3.45-8.88-2.489-11.543-1.789
			c-0.962,0.253-1.792,0.471-2.629,0.471c-5.007,0-6.777-1.336-6.795-1.349c0,0,0.054,0.042,0.151,0.139
			c-1.247-1.245-3.229-1.362-4.612-0.27c-1.384,1.093-1.73,3.048-0.807,4.549C1.99,47.927,7.242,55.799,12.927,56.448z"/>
	</g>
	<g>
		<path class="st2" d="M80.762,92.191c-6.164-6.773-12.161-8.447-18.048-7.427c8.025-6.005,13.605-15.667,13.605-28.8h-14.46
			c0,14.811-10.669,21.51-21.344,21.628c-0.095,0-0.193,0.006-0.289,0.006c-0.095,0-0.191-0.005-0.288-0.006H3.024v14.464h37.221
			c0.278,0,0.556-0.002,0.834-0.01c2.62-0.057,5.239-0.381,7.8-0.964c-12.978,8.551-25.608,21.126-38.52,10.048
			c-0.24-0.205-7.388,14.06-7.487,14.302c40.307,23.243,47.229-27.445,71.867-9C74.98,106.612,81.188,92.657,80.762,92.191z
			 M13.32,52.995c4.991,0.571,9.103-0.274,12.51,0.812c-0.255,1.118-0.404,2.278-0.404,3.473c0,8.58,6.954,15.535,15.533,15.535
			c8.581,0,15.534-6.955,15.534-15.535c0-8.578-6.953-15.533-15.534-15.533c-5.546,0-10.402,2.918-13.15,7.292
			c-0.73-0.733-1.701-1.521-2.971-2.359c-5.724-3.771-8.136-0.743-12.26-0.743c-6.873,0-9.102-2.229-9.102-2.229
			S8.876,52.487,13.32,52.995z"/>
	</g>
</g>
<g>
	<rect x="194.247" y="90.315" class="st3" width="55.754" height="2.802"/>
	<rect x="202.208" y="83.658" class="st3" width="32.994" height="2.804"/>
	<rect x="199.125" y="96.482" class="st3" width="21.885" height="2.804"/>
</g>
</svg>
